<mxfile host="Electron" agent="Mozilla/5.0 (Windows NT 10.0; Win64; x64) AppleWebKit/537.36 (KHTML, like Gecko) draw.io/26.0.16 Chrome/132.0.6834.196 Electron/34.2.0 Safari/537.36" version="26.0.16">
  <diagram name="Page-1" id="roUtOqUfHHdZscOLCuBx">
    <mxGraphModel dx="1668" dy="1610" grid="1" gridSize="10" guides="1" tooltips="1" connect="1" arrows="1" fold="1" page="1" pageScale="1" pageWidth="827" pageHeight="1169" math="0" shadow="0">
      <root>
        <mxCell id="0" />
        <mxCell id="1" parent="0" />
        <mxCell id="-5tsXmkmVfbZth0xjSN1-1" value="&lt;p style=&quot;margin:0px;margin-top:4px;text-align:center;&quot;&gt;&lt;b&gt;ClientBLL&lt;/b&gt;&lt;/p&gt;&lt;hr size=&quot;1&quot; style=&quot;border-style:solid;&quot;&gt;&lt;p style=&quot;margin:0px;margin-left:4px;&quot;&gt;- clientDAO: ClientDAO&lt;/p&gt;&lt;hr size=&quot;1&quot; style=&quot;border-style:solid;&quot;&gt;&lt;p style=&quot;margin:0px;margin-left:4px;&quot;&gt;+ ClientDAO()&lt;/p&gt;&lt;p style=&quot;margin:0px;margin-left:4px;&quot;&gt;+ findClientByID(id: int): Client&lt;/p&gt;&lt;p style=&quot;margin:0px;margin-left:4px;&quot;&gt;+ insertClient(client: Client): int&lt;/p&gt;&lt;p style=&quot;margin:0px;margin-left:4px;&quot;&gt;+ getAllClients(): List&amp;lt;Client&amp;gt;&lt;/p&gt;&lt;p style=&quot;margin:0px;margin-left:4px;&quot;&gt;+ updateClient(client: Client): int&lt;/p&gt;&lt;p style=&quot;margin:0px;margin-left:4px;&quot;&gt;+ deleteClient(id: int): int&lt;/p&gt;" style="verticalAlign=top;align=left;overflow=fill;html=1;whiteSpace=wrap;" parent="1" vertex="1">
          <mxGeometry x="20" y="30" width="190" height="150" as="geometry" />
        </mxCell>
        <mxCell id="-5tsXmkmVfbZth0xjSN1-2" value="&lt;p style=&quot;margin:0px;margin-top:4px;text-align:center;&quot;&gt;&lt;b&gt;OrderBLL&lt;/b&gt;&lt;/p&gt;&lt;hr size=&quot;1&quot; style=&quot;border-style:solid;&quot;&gt;&lt;p style=&quot;margin:0px;margin-left:4px;&quot;&gt;- orderDAO: OrderDAO&lt;/p&gt;&lt;hr size=&quot;1&quot; style=&quot;border-style:solid;&quot;&gt;&lt;p style=&quot;margin:0px;margin-left:4px;&quot;&gt;+ OrderDAO()&lt;/p&gt;&lt;p style=&quot;margin:0px;margin-left:4px;&quot;&gt;+ findClientByID(id: int): Order&lt;/p&gt;&lt;p style=&quot;margin:0px;margin-left:4px;&quot;&gt;+ insertOrder(order: Order): int&lt;/p&gt;&lt;p style=&quot;margin:0px;margin-left:4px;&quot;&gt;+ getAllOrders(): List&amp;lt;Order&amp;gt;&lt;/p&gt;&lt;p style=&quot;margin:0px;margin-left:4px;&quot;&gt;+ updateOrder(order: Order): int&lt;/p&gt;&lt;p style=&quot;margin:0px;margin-left:4px;&quot;&gt;+ deleteOrder(id: int): int&lt;/p&gt;" style="verticalAlign=top;align=left;overflow=fill;html=1;whiteSpace=wrap;" parent="1" vertex="1">
          <mxGeometry x="387" y="30" width="190" height="150" as="geometry" />
        </mxCell>
        <mxCell id="-5tsXmkmVfbZth0xjSN1-3" value="&lt;p style=&quot;margin:0px;margin-top:4px;text-align:center;&quot;&gt;&lt;b&gt;ProductBLL&lt;/b&gt;&lt;/p&gt;&lt;hr size=&quot;1&quot; style=&quot;border-style:solid;&quot;&gt;&lt;p style=&quot;margin:0px;margin-left:4px;&quot;&gt;- productDAO: ProductDAO&lt;/p&gt;&lt;hr size=&quot;1&quot; style=&quot;border-style:solid;&quot;&gt;&lt;p style=&quot;margin:0px;margin-left:4px;&quot;&gt;+ ProductDAO()&lt;/p&gt;&lt;p style=&quot;margin:0px;margin-left:4px;&quot;&gt;+ findProductByID(id: int): Product&lt;/p&gt;&lt;p style=&quot;margin:0px;margin-left:4px;&quot;&gt;+ insertProduct(product: Product): int&lt;/p&gt;&lt;p style=&quot;margin:0px;margin-left:4px;&quot;&gt;+ getAllProducts(): List&amp;lt;Product&amp;gt;&lt;/p&gt;&lt;p style=&quot;margin:0px;margin-left:4px;&quot;&gt;+ updateProduct(product: Product): int&lt;/p&gt;&lt;p style=&quot;margin:0px;margin-left:4px;&quot;&gt;+ deleteProduct(id: int): int&lt;/p&gt;" style="verticalAlign=top;align=left;overflow=fill;html=1;whiteSpace=wrap;" parent="1" vertex="1">
          <mxGeometry x="730" y="30" width="190" height="180" as="geometry" />
        </mxCell>
        <mxCell id="-5tsXmkmVfbZth0xjSN1-4" value="ConnectionFactory" style="swimlane;fontStyle=1;align=center;verticalAlign=top;childLayout=stackLayout;horizontal=1;startSize=26;horizontalStack=0;resizeParent=1;resizeParentMax=0;resizeLast=0;collapsible=1;marginBottom=0;whiteSpace=wrap;html=1;" parent="1" vertex="1">
          <mxGeometry x="5" y="240" width="220" height="220" as="geometry" />
        </mxCell>
        <mxCell id="-5tsXmkmVfbZth0xjSN1-5" value="- LOGGER: Logger&lt;div&gt;- DRIVER: String&lt;/div&gt;&lt;div&gt;- DBURL: String&lt;/div&gt;&lt;div&gt;- USER: String&lt;/div&gt;&lt;div&gt;- PASS: String&lt;/div&gt;&lt;div&gt;- singleInstance: ConnectionFactory&lt;/div&gt;" style="text;strokeColor=none;fillColor=none;align=left;verticalAlign=top;spacingLeft=4;spacingRight=4;overflow=hidden;rotatable=0;points=[[0,0.5],[1,0.5]];portConstraint=eastwest;whiteSpace=wrap;html=1;" parent="-5tsXmkmVfbZth0xjSN1-4" vertex="1">
          <mxGeometry y="26" width="220" height="94" as="geometry" />
        </mxCell>
        <mxCell id="-5tsXmkmVfbZth0xjSN1-6" value="" style="line;strokeWidth=1;fillColor=none;align=left;verticalAlign=middle;spacingTop=-1;spacingLeft=3;spacingRight=3;rotatable=0;labelPosition=right;points=[];portConstraint=eastwest;strokeColor=inherit;" parent="-5tsXmkmVfbZth0xjSN1-4" vertex="1">
          <mxGeometry y="120" width="220" height="20" as="geometry" />
        </mxCell>
        <mxCell id="-5tsXmkmVfbZth0xjSN1-7" value="+ getConnection(): Connection&lt;div&gt;+ close(con: onnection): void&lt;/div&gt;&lt;div&gt;+ close(stmt: Statement): void&lt;/div&gt;&lt;div&gt;+ close(rs: ResultSet): void&lt;/div&gt;" style="text;strokeColor=none;fillColor=none;align=left;verticalAlign=top;spacingLeft=4;spacingRight=4;overflow=hidden;rotatable=0;points=[[0,0.5],[1,0.5]];portConstraint=eastwest;whiteSpace=wrap;html=1;" parent="-5tsXmkmVfbZth0xjSN1-4" vertex="1">
          <mxGeometry y="140" width="220" height="80" as="geometry" />
        </mxCell>
        <mxCell id="-5tsXmkmVfbZth0xjSN1-8" value="AbstractDAO&amp;lt;T&amp;gt;" style="swimlane;fontStyle=1;align=center;verticalAlign=top;childLayout=stackLayout;horizontal=1;startSize=26;horizontalStack=0;resizeParent=1;resizeParentMax=0;resizeLast=0;collapsible=1;marginBottom=0;whiteSpace=wrap;html=1;" parent="1" vertex="1">
          <mxGeometry x="1141" y="30" width="200" height="190" as="geometry" />
        </mxCell>
        <mxCell id="-5tsXmkmVfbZth0xjSN1-9" value="- LOGGER: Logger&lt;div&gt;- type: Class&amp;lt;T&amp;gt;&lt;/div&gt;" style="text;strokeColor=none;fillColor=none;align=left;verticalAlign=top;spacingLeft=4;spacingRight=4;overflow=hidden;rotatable=0;points=[[0,0.5],[1,0.5]];portConstraint=eastwest;whiteSpace=wrap;html=1;" parent="-5tsXmkmVfbZth0xjSN1-8" vertex="1">
          <mxGeometry y="26" width="200" height="44" as="geometry" />
        </mxCell>
        <mxCell id="-5tsXmkmVfbZth0xjSN1-10" value="" style="line;strokeWidth=1;fillColor=none;align=left;verticalAlign=middle;spacingTop=-1;spacingLeft=3;spacingRight=3;rotatable=0;labelPosition=right;points=[];portConstraint=eastwest;strokeColor=inherit;" parent="-5tsXmkmVfbZth0xjSN1-8" vertex="1">
          <mxGeometry y="70" width="200" height="8" as="geometry" />
        </mxCell>
        <mxCell id="-5tsXmkmVfbZth0xjSN1-11" value="+ AbstractDAO(type: Class&amp;lt;T&amp;gt;)&lt;div&gt;+ findById(id: int): T&lt;/div&gt;&lt;div&gt;+ insert(obj: T): int&lt;/div&gt;&lt;div&gt;+ findAll(): List&amp;lt;T&amp;gt;&lt;/div&gt;&lt;div&gt;+ update(obj: T): int&lt;/div&gt;&lt;div&gt;+ delete(id: int): int&lt;/div&gt;&lt;div&gt;- createObject(rs: ResultSet): T&lt;/div&gt;" style="text;strokeColor=none;fillColor=none;align=left;verticalAlign=top;spacingLeft=4;spacingRight=4;overflow=hidden;rotatable=0;points=[[0,0.5],[1,0.5]];portConstraint=eastwest;whiteSpace=wrap;html=1;" parent="-5tsXmkmVfbZth0xjSN1-8" vertex="1">
          <mxGeometry y="78" width="200" height="112" as="geometry" />
        </mxCell>
        <mxCell id="-5tsXmkmVfbZth0xjSN1-12" value="BillDAO" style="swimlane;fontStyle=1;align=center;verticalAlign=top;childLayout=stackLayout;horizontal=1;startSize=26;horizontalStack=0;resizeParent=1;resizeParentMax=0;resizeLast=0;collapsible=1;marginBottom=0;whiteSpace=wrap;html=1;" parent="1" vertex="1">
          <mxGeometry x="1450" y="120" width="160" height="100" as="geometry" />
        </mxCell>
        <mxCell id="-5tsXmkmVfbZth0xjSN1-13" value="- LOGGER: Logger" style="text;strokeColor=none;fillColor=none;align=left;verticalAlign=top;spacingLeft=4;spacingRight=4;overflow=hidden;rotatable=0;points=[[0,0.5],[1,0.5]];portConstraint=eastwest;whiteSpace=wrap;html=1;" parent="-5tsXmkmVfbZth0xjSN1-12" vertex="1">
          <mxGeometry y="26" width="160" height="26" as="geometry" />
        </mxCell>
        <mxCell id="-5tsXmkmVfbZth0xjSN1-14" value="" style="line;strokeWidth=1;fillColor=none;align=left;verticalAlign=middle;spacingTop=-1;spacingLeft=3;spacingRight=3;rotatable=0;labelPosition=right;points=[];portConstraint=eastwest;strokeColor=inherit;" parent="-5tsXmkmVfbZth0xjSN1-12" vertex="1">
          <mxGeometry y="52" width="160" height="8" as="geometry" />
        </mxCell>
        <mxCell id="-5tsXmkmVfbZth0xjSN1-15" value="+ insert(bill: Bill): int&lt;div&gt;+ findAll(): List&amp;lt;Bill&amp;gt;&lt;/div&gt;" style="text;strokeColor=none;fillColor=none;align=left;verticalAlign=top;spacingLeft=4;spacingRight=4;overflow=hidden;rotatable=0;points=[[0,0.5],[1,0.5]];portConstraint=eastwest;whiteSpace=wrap;html=1;" parent="-5tsXmkmVfbZth0xjSN1-12" vertex="1">
          <mxGeometry y="60" width="160" height="40" as="geometry" />
        </mxCell>
        <mxCell id="-5tsXmkmVfbZth0xjSN1-16" value="Client" style="swimlane;fontStyle=1;align=center;verticalAlign=top;childLayout=stackLayout;horizontal=1;startSize=26;horizontalStack=0;resizeParent=1;resizeParentMax=0;resizeLast=0;collapsible=1;marginBottom=0;whiteSpace=wrap;html=1;" parent="1" vertex="1">
          <mxGeometry x="300" y="330" width="220" height="280" as="geometry" />
        </mxCell>
        <mxCell id="-5tsXmkmVfbZth0xjSN1-17" value="- id: int&lt;div&gt;- name: String&lt;/div&gt;&lt;div&gt;- email: String&lt;/div&gt;&lt;div&gt;- address: String&lt;/div&gt;" style="text;strokeColor=none;fillColor=none;align=left;verticalAlign=top;spacingLeft=4;spacingRight=4;overflow=hidden;rotatable=0;points=[[0,0.5],[1,0.5]];portConstraint=eastwest;whiteSpace=wrap;html=1;" parent="-5tsXmkmVfbZth0xjSN1-16" vertex="1">
          <mxGeometry y="26" width="220" height="64" as="geometry" />
        </mxCell>
        <mxCell id="-5tsXmkmVfbZth0xjSN1-18" value="" style="line;strokeWidth=1;fillColor=none;align=left;verticalAlign=middle;spacingTop=-1;spacingLeft=3;spacingRight=3;rotatable=0;labelPosition=right;points=[];portConstraint=eastwest;strokeColor=inherit;" parent="-5tsXmkmVfbZth0xjSN1-16" vertex="1">
          <mxGeometry y="90" width="220" height="8" as="geometry" />
        </mxCell>
        <mxCell id="-5tsXmkmVfbZth0xjSN1-19" value="+ Client()&lt;div&gt;+ Client(id: int, name: String, email: String, address: String)&lt;/div&gt;&lt;div&gt;+ getId(): int&lt;/div&gt;&lt;div&gt;+ setId(id: int): void&lt;/div&gt;&lt;div&gt;+ getName(): String&lt;/div&gt;&lt;div&gt;+ setName(name: String): void&lt;/div&gt;&lt;div&gt;+ getEmail(): String&lt;/div&gt;&lt;div&gt;+ setEmail(email: String): void&lt;/div&gt;&lt;div&gt;+ getAddress(): String&lt;/div&gt;&lt;div&gt;+ setAddress(address: String): void&lt;/div&gt;&lt;div&gt;+ toString(): String&lt;/div&gt;" style="text;strokeColor=none;fillColor=none;align=left;verticalAlign=top;spacingLeft=4;spacingRight=4;overflow=hidden;rotatable=0;points=[[0,0.5],[1,0.5]];portConstraint=eastwest;whiteSpace=wrap;html=1;" parent="-5tsXmkmVfbZth0xjSN1-16" vertex="1">
          <mxGeometry y="98" width="220" height="182" as="geometry" />
        </mxCell>
        <mxCell id="-5tsXmkmVfbZth0xjSN1-20" value="Order" style="swimlane;fontStyle=1;align=center;verticalAlign=top;childLayout=stackLayout;horizontal=1;startSize=26;horizontalStack=0;resizeParent=1;resizeParentMax=0;resizeLast=0;collapsible=1;marginBottom=0;whiteSpace=wrap;html=1;" parent="1" vertex="1">
          <mxGeometry x="640" y="330" width="220" height="280" as="geometry" />
        </mxCell>
        <mxCell id="-5tsXmkmVfbZth0xjSN1-21" value="- id: int&lt;div&gt;- clientId: int&lt;/div&gt;&lt;div&gt;- productId: int&lt;/div&gt;&lt;div&gt;- quantity: int&lt;/div&gt;" style="text;strokeColor=none;fillColor=none;align=left;verticalAlign=top;spacingLeft=4;spacingRight=4;overflow=hidden;rotatable=0;points=[[0,0.5],[1,0.5]];portConstraint=eastwest;whiteSpace=wrap;html=1;" parent="-5tsXmkmVfbZth0xjSN1-20" vertex="1">
          <mxGeometry y="26" width="220" height="64" as="geometry" />
        </mxCell>
        <mxCell id="-5tsXmkmVfbZth0xjSN1-22" value="" style="line;strokeWidth=1;fillColor=none;align=left;verticalAlign=middle;spacingTop=-1;spacingLeft=3;spacingRight=3;rotatable=0;labelPosition=right;points=[];portConstraint=eastwest;strokeColor=inherit;" parent="-5tsXmkmVfbZth0xjSN1-20" vertex="1">
          <mxGeometry y="90" width="220" height="8" as="geometry" />
        </mxCell>
        <mxCell id="-5tsXmkmVfbZth0xjSN1-23" value="+ Order()&lt;div&gt;+ Order(id: int,&amp;nbsp;&lt;span style=&quot;background-color: transparent; color: light-dark(rgb(0, 0, 0), rgb(255, 255, 255));&quot;&gt;clientId: int,&lt;/span&gt;&lt;span style=&quot;background-color: transparent; color: light-dark(rgb(0, 0, 0), rgb(255, 255, 255));&quot;&gt;&amp;nbsp;productId: int,&amp;nbsp;&lt;/span&gt;&lt;span style=&quot;background-color: transparent; color: light-dark(rgb(0, 0, 0), rgb(255, 255, 255));&quot;&gt;quantity: int&lt;/span&gt;)&lt;/div&gt;&lt;div&gt;+ getId(): int&lt;/div&gt;&lt;div&gt;+ setId(id: int): void&lt;/div&gt;&lt;div&gt;+ getClientId(): int&lt;/div&gt;&lt;div&gt;+ setClientId(clientId: int): void&lt;/div&gt;&lt;div&gt;+ getProductId(): int&lt;/div&gt;&lt;div&gt;+ setProductId(productIdl: int): void&lt;/div&gt;&lt;div&gt;+ getQuantity(): int&lt;/div&gt;&lt;div&gt;+ setQuantity(quantity: int): void&lt;/div&gt;&lt;div&gt;+ toString(): String&lt;/div&gt;" style="text;strokeColor=none;fillColor=none;align=left;verticalAlign=top;spacingLeft=4;spacingRight=4;overflow=hidden;rotatable=0;points=[[0,0.5],[1,0.5]];portConstraint=eastwest;whiteSpace=wrap;html=1;" parent="-5tsXmkmVfbZth0xjSN1-20" vertex="1">
          <mxGeometry y="98" width="220" height="182" as="geometry" />
        </mxCell>
        <mxCell id="-5tsXmkmVfbZth0xjSN1-25" value="Product" style="swimlane;fontStyle=1;align=center;verticalAlign=top;childLayout=stackLayout;horizontal=1;startSize=26;horizontalStack=0;resizeParent=1;resizeParentMax=0;resizeLast=0;collapsible=1;marginBottom=0;whiteSpace=wrap;html=1;" parent="1" vertex="1">
          <mxGeometry x="990" y="330" width="220" height="280" as="geometry" />
        </mxCell>
        <mxCell id="-5tsXmkmVfbZth0xjSN1-26" value="- id: int&lt;div&gt;- name: String&lt;/div&gt;&lt;div&gt;- price: double&lt;/div&gt;&lt;div&gt;- stock: int&lt;/div&gt;" style="text;strokeColor=none;fillColor=none;align=left;verticalAlign=top;spacingLeft=4;spacingRight=4;overflow=hidden;rotatable=0;points=[[0,0.5],[1,0.5]];portConstraint=eastwest;whiteSpace=wrap;html=1;" parent="-5tsXmkmVfbZth0xjSN1-25" vertex="1">
          <mxGeometry y="26" width="220" height="64" as="geometry" />
        </mxCell>
        <mxCell id="-5tsXmkmVfbZth0xjSN1-27" value="" style="line;strokeWidth=1;fillColor=none;align=left;verticalAlign=middle;spacingTop=-1;spacingLeft=3;spacingRight=3;rotatable=0;labelPosition=right;points=[];portConstraint=eastwest;strokeColor=inherit;" parent="-5tsXmkmVfbZth0xjSN1-25" vertex="1">
          <mxGeometry y="90" width="220" height="8" as="geometry" />
        </mxCell>
        <mxCell id="-5tsXmkmVfbZth0xjSN1-28" value="+ Product()&lt;div&gt;+ Product(id: int, name: String, price: double, stock: int)&lt;/div&gt;&lt;div&gt;+ getId(): int&lt;/div&gt;&lt;div&gt;+ setId(id: int): void&lt;/div&gt;&lt;div&gt;+ getName(): String&lt;/div&gt;&lt;div&gt;+ setName(name: String): void&lt;/div&gt;&lt;div&gt;+ getPrice(): double&lt;/div&gt;&lt;div&gt;+ setPrice(price: double): void&lt;/div&gt;&lt;div&gt;+ getStock(): int&lt;/div&gt;&lt;div&gt;+ setStock(stock: int): void&lt;/div&gt;" style="text;strokeColor=none;fillColor=none;align=left;verticalAlign=top;spacingLeft=4;spacingRight=4;overflow=hidden;rotatable=0;points=[[0,0.5],[1,0.5]];portConstraint=eastwest;whiteSpace=wrap;html=1;" parent="-5tsXmkmVfbZth0xjSN1-25" vertex="1">
          <mxGeometry y="98" width="220" height="182" as="geometry" />
        </mxCell>
        <mxCell id="-5tsXmkmVfbZth0xjSN1-29" value="ClientController" style="swimlane;fontStyle=1;align=center;verticalAlign=top;childLayout=stackLayout;horizontal=1;startSize=26;horizontalStack=0;resizeParent=1;resizeParentMax=0;resizeLast=0;collapsible=1;marginBottom=0;whiteSpace=wrap;html=1;" parent="1" vertex="1">
          <mxGeometry x="35" y="870" width="265" height="158" as="geometry" />
        </mxCell>
        <mxCell id="-5tsXmkmVfbZth0xjSN1-30" value="- clientBLL: ClientBLL&lt;div&gt;- clientView: ClientView&lt;/div&gt;" style="text;strokeColor=none;fillColor=none;align=left;verticalAlign=top;spacingLeft=4;spacingRight=4;overflow=hidden;rotatable=0;points=[[0,0.5],[1,0.5]];portConstraint=eastwest;whiteSpace=wrap;html=1;" parent="-5tsXmkmVfbZth0xjSN1-29" vertex="1">
          <mxGeometry y="26" width="265" height="44" as="geometry" />
        </mxCell>
        <mxCell id="-5tsXmkmVfbZth0xjSN1-31" value="" style="line;strokeWidth=1;fillColor=none;align=left;verticalAlign=middle;spacingTop=-1;spacingLeft=3;spacingRight=3;rotatable=0;labelPosition=right;points=[];portConstraint=eastwest;strokeColor=inherit;" parent="-5tsXmkmVfbZth0xjSN1-29" vertex="1">
          <mxGeometry y="70" width="265" height="8" as="geometry" />
        </mxCell>
        <mxCell id="-5tsXmkmVfbZth0xjSN1-32" value="+ ClientController(clientView: ClientView)&lt;div&gt;- initListeners(): void&lt;/div&gt;&lt;div&gt;- loadTableData(): void&lt;/div&gt;&lt;div&gt;- showMessage(message: String): void&lt;/div&gt;&lt;div&gt;+ clearFields(): void&lt;/div&gt;" style="text;strokeColor=none;fillColor=none;align=left;verticalAlign=top;spacingLeft=4;spacingRight=4;overflow=hidden;rotatable=0;points=[[0,0.5],[1,0.5]];portConstraint=eastwest;whiteSpace=wrap;html=1;" parent="-5tsXmkmVfbZth0xjSN1-29" vertex="1">
          <mxGeometry y="78" width="265" height="80" as="geometry" />
        </mxCell>
        <mxCell id="-5tsXmkmVfbZth0xjSN1-33" value="OrderController" style="swimlane;fontStyle=1;align=center;verticalAlign=top;childLayout=stackLayout;horizontal=1;startSize=26;horizontalStack=0;resizeParent=1;resizeParentMax=0;resizeLast=0;collapsible=1;marginBottom=0;whiteSpace=wrap;html=1;" parent="1" vertex="1">
          <mxGeometry x="450" y="850" width="265" height="208" as="geometry" />
        </mxCell>
        <mxCell id="-5tsXmkmVfbZth0xjSN1-34" value="- view: OrderView&lt;div&gt;- orderBLL: OrderBLL&lt;/div&gt;&lt;div&gt;- productBLL: ProductBLL&lt;/div&gt;&lt;div&gt;- clientBLL: ClientBLL&lt;/div&gt;&lt;div&gt;-clientMap: HashMap&amp;lt;String, Integer&amp;gt;&lt;/div&gt;&lt;div&gt;- productMap: HashMap&amp;lt;String, Product&amp;gt;&lt;/div&gt;" style="text;strokeColor=none;fillColor=none;align=left;verticalAlign=top;spacingLeft=4;spacingRight=4;overflow=hidden;rotatable=0;points=[[0,0.5],[1,0.5]];portConstraint=eastwest;whiteSpace=wrap;html=1;" parent="-5tsXmkmVfbZth0xjSN1-33" vertex="1">
          <mxGeometry y="26" width="265" height="94" as="geometry" />
        </mxCell>
        <mxCell id="-5tsXmkmVfbZth0xjSN1-35" value="" style="line;strokeWidth=1;fillColor=none;align=left;verticalAlign=middle;spacingTop=-1;spacingLeft=3;spacingRight=3;rotatable=0;labelPosition=right;points=[];portConstraint=eastwest;strokeColor=inherit;" parent="-5tsXmkmVfbZth0xjSN1-33" vertex="1">
          <mxGeometry y="120" width="265" height="8" as="geometry" />
        </mxCell>
        <mxCell id="-5tsXmkmVfbZth0xjSN1-36" value="+ OrderController(view: OrderView)&lt;div&gt;- initListeners(): void&lt;/div&gt;&lt;div&gt;- loadTableData(): void&lt;/div&gt;&lt;div&gt;- showMessage(message: String): void&lt;/div&gt;&lt;div&gt;+ clearFields(): void&lt;/div&gt;" style="text;strokeColor=none;fillColor=none;align=left;verticalAlign=top;spacingLeft=4;spacingRight=4;overflow=hidden;rotatable=0;points=[[0,0.5],[1,0.5]];portConstraint=eastwest;whiteSpace=wrap;html=1;" parent="-5tsXmkmVfbZth0xjSN1-33" vertex="1">
          <mxGeometry y="128" width="265" height="80" as="geometry" />
        </mxCell>
        <mxCell id="-5tsXmkmVfbZth0xjSN1-37" value="ProductController" style="swimlane;fontStyle=1;align=center;verticalAlign=top;childLayout=stackLayout;horizontal=1;startSize=26;horizontalStack=0;resizeParent=1;resizeParentMax=0;resizeLast=0;collapsible=1;marginBottom=0;whiteSpace=wrap;html=1;" parent="1" vertex="1">
          <mxGeometry x="830" y="860" width="265" height="158" as="geometry" />
        </mxCell>
        <mxCell id="-5tsXmkmVfbZth0xjSN1-38" value="- view: ProductView&lt;div&gt;- productBLL: ProductBLL&lt;/div&gt;" style="text;strokeColor=none;fillColor=none;align=left;verticalAlign=top;spacingLeft=4;spacingRight=4;overflow=hidden;rotatable=0;points=[[0,0.5],[1,0.5]];portConstraint=eastwest;whiteSpace=wrap;html=1;" parent="-5tsXmkmVfbZth0xjSN1-37" vertex="1">
          <mxGeometry y="26" width="265" height="44" as="geometry" />
        </mxCell>
        <mxCell id="-5tsXmkmVfbZth0xjSN1-39" value="" style="line;strokeWidth=1;fillColor=none;align=left;verticalAlign=middle;spacingTop=-1;spacingLeft=3;spacingRight=3;rotatable=0;labelPosition=right;points=[];portConstraint=eastwest;strokeColor=inherit;" parent="-5tsXmkmVfbZth0xjSN1-37" vertex="1">
          <mxGeometry y="70" width="265" height="8" as="geometry" />
        </mxCell>
        <mxCell id="-5tsXmkmVfbZth0xjSN1-40" value="+ ProductController(view: ProductView)&lt;div&gt;- initListeners(): void&lt;/div&gt;&lt;div&gt;- loadTableData(): void&lt;/div&gt;&lt;div&gt;- showMessage(message: String): void&lt;/div&gt;&lt;div&gt;+ clearFields(): void&lt;/div&gt;" style="text;strokeColor=none;fillColor=none;align=left;verticalAlign=top;spacingLeft=4;spacingRight=4;overflow=hidden;rotatable=0;points=[[0,0.5],[1,0.5]];portConstraint=eastwest;whiteSpace=wrap;html=1;" parent="-5tsXmkmVfbZth0xjSN1-37" vertex="1">
          <mxGeometry y="78" width="265" height="80" as="geometry" />
        </mxCell>
        <mxCell id="-5tsXmkmVfbZth0xjSN1-41" value="ClientView" style="swimlane;fontStyle=1;align=center;verticalAlign=top;childLayout=stackLayout;horizontal=1;startSize=26;horizontalStack=0;resizeParent=1;resizeParentMax=0;resizeLast=0;collapsible=1;marginBottom=0;whiteSpace=wrap;html=1;" parent="1" vertex="1">
          <mxGeometry x="170" y="1382" width="190" height="210" as="geometry" />
        </mxCell>
        <mxCell id="-5tsXmkmVfbZth0xjSN1-42" value="+ idField: JTextField&lt;div&gt;+ nameField: JTextField&lt;/div&gt;&lt;div&gt;+ emailField: JTextField&lt;/div&gt;&lt;div&gt;+ addressField: JTextfield&lt;/div&gt;&lt;div&gt;+ addButton: JButton&lt;/div&gt;&lt;div&gt;+ editButton: JButton&lt;/div&gt;&lt;div&gt;+ deleteButton: JButton&lt;/div&gt;&lt;div&gt;+ viewButton: JButton&lt;/div&gt;&lt;div&gt;+clientTable: JTable&lt;/div&gt;&lt;div&gt;+ tableModel: DefaultTableModel&lt;/div&gt;" style="text;strokeColor=none;fillColor=none;align=left;verticalAlign=top;spacingLeft=4;spacingRight=4;overflow=hidden;rotatable=0;points=[[0,0.5],[1,0.5]];portConstraint=eastwest;whiteSpace=wrap;html=1;" parent="-5tsXmkmVfbZth0xjSN1-41" vertex="1">
          <mxGeometry y="26" width="190" height="154" as="geometry" />
        </mxCell>
        <mxCell id="-5tsXmkmVfbZth0xjSN1-43" value="" style="line;strokeWidth=1;fillColor=none;align=left;verticalAlign=middle;spacingTop=-1;spacingLeft=3;spacingRight=3;rotatable=0;labelPosition=right;points=[];portConstraint=eastwest;strokeColor=inherit;" parent="-5tsXmkmVfbZth0xjSN1-41" vertex="1">
          <mxGeometry y="180" width="190" height="8" as="geometry" />
        </mxCell>
        <mxCell id="-5tsXmkmVfbZth0xjSN1-44" value="+ ClientView()" style="text;strokeColor=none;fillColor=none;align=left;verticalAlign=top;spacingLeft=4;spacingRight=4;overflow=hidden;rotatable=0;points=[[0,0.5],[1,0.5]];portConstraint=eastwest;whiteSpace=wrap;html=1;" parent="-5tsXmkmVfbZth0xjSN1-41" vertex="1">
          <mxGeometry y="188" width="190" height="22" as="geometry" />
        </mxCell>
        <mxCell id="-5tsXmkmVfbZth0xjSN1-45" value="ProductView" style="swimlane;fontStyle=1;align=center;verticalAlign=top;childLayout=stackLayout;horizontal=1;startSize=26;horizontalStack=0;resizeParent=1;resizeParentMax=0;resizeLast=0;collapsible=1;marginBottom=0;whiteSpace=wrap;html=1;" parent="1" vertex="1">
          <mxGeometry x="530" y="1360" width="265" height="210" as="geometry" />
        </mxCell>
        <mxCell id="-5tsXmkmVfbZth0xjSN1-46" value="+ idField: JTextField&lt;div&gt;+ nameField: JTextField&lt;/div&gt;&lt;div&gt;+ priceField: JTextField&lt;/div&gt;&lt;div&gt;+ stockField: JTextfield&lt;/div&gt;&lt;div&gt;+ addButton: JButton&lt;/div&gt;&lt;div&gt;+ editButton: JButton&lt;/div&gt;&lt;div&gt;+ deleteButton: JButton&lt;/div&gt;&lt;div&gt;+ viewButton: JButton&lt;/div&gt;&lt;div&gt;+ table: JTable&lt;/div&gt;&lt;div&gt;+ model: DefaultTableModel&lt;/div&gt;" style="text;strokeColor=none;fillColor=none;align=left;verticalAlign=top;spacingLeft=4;spacingRight=4;overflow=hidden;rotatable=0;points=[[0,0.5],[1,0.5]];portConstraint=eastwest;whiteSpace=wrap;html=1;" parent="-5tsXmkmVfbZth0xjSN1-45" vertex="1">
          <mxGeometry y="26" width="265" height="154" as="geometry" />
        </mxCell>
        <mxCell id="-5tsXmkmVfbZth0xjSN1-47" value="" style="line;strokeWidth=1;fillColor=none;align=left;verticalAlign=middle;spacingTop=-1;spacingLeft=3;spacingRight=3;rotatable=0;labelPosition=right;points=[];portConstraint=eastwest;strokeColor=inherit;" parent="-5tsXmkmVfbZth0xjSN1-45" vertex="1">
          <mxGeometry y="180" width="265" height="8" as="geometry" />
        </mxCell>
        <mxCell id="-5tsXmkmVfbZth0xjSN1-48" value="+ ProductView()" style="text;strokeColor=none;fillColor=none;align=left;verticalAlign=top;spacingLeft=4;spacingRight=4;overflow=hidden;rotatable=0;points=[[0,0.5],[1,0.5]];portConstraint=eastwest;whiteSpace=wrap;html=1;" parent="-5tsXmkmVfbZth0xjSN1-45" vertex="1">
          <mxGeometry y="188" width="265" height="22" as="geometry" />
        </mxCell>
        <mxCell id="-5tsXmkmVfbZth0xjSN1-49" value="OrderView" style="swimlane;fontStyle=1;align=center;verticalAlign=top;childLayout=stackLayout;horizontal=1;startSize=26;horizontalStack=0;resizeParent=1;resizeParentMax=0;resizeLast=0;collapsible=1;marginBottom=0;whiteSpace=wrap;html=1;" parent="1" vertex="1">
          <mxGeometry x="940" y="1390" width="265" height="160" as="geometry" />
        </mxCell>
        <mxCell id="-5tsXmkmVfbZth0xjSN1-50" value="+ clientCombobox: JComboBox&amp;lt;String&amp;gt;&lt;div&gt;+ productComboBox: JcomboBox&amp;lt;String&amp;gt;&lt;/div&gt;&lt;div&gt;+ quantityField: JTextField&lt;/div&gt;&lt;div&gt;+ placeOrderButton: JButton&lt;/div&gt;&lt;div&gt;+ orderTable: JTable&lt;/div&gt;&lt;div&gt;+ orderTableModel: DefaultTableModel&lt;/div&gt;" style="text;strokeColor=none;fillColor=none;align=left;verticalAlign=top;spacingLeft=4;spacingRight=4;overflow=hidden;rotatable=0;points=[[0,0.5],[1,0.5]];portConstraint=eastwest;whiteSpace=wrap;html=1;" parent="-5tsXmkmVfbZth0xjSN1-49" vertex="1">
          <mxGeometry y="26" width="265" height="104" as="geometry" />
        </mxCell>
        <mxCell id="-5tsXmkmVfbZth0xjSN1-51" value="" style="line;strokeWidth=1;fillColor=none;align=left;verticalAlign=middle;spacingTop=-1;spacingLeft=3;spacingRight=3;rotatable=0;labelPosition=right;points=[];portConstraint=eastwest;strokeColor=inherit;" parent="-5tsXmkmVfbZth0xjSN1-49" vertex="1">
          <mxGeometry y="130" width="265" height="8" as="geometry" />
        </mxCell>
        <mxCell id="-5tsXmkmVfbZth0xjSN1-52" value="+ OrderView()" style="text;strokeColor=none;fillColor=none;align=left;verticalAlign=top;spacingLeft=4;spacingRight=4;overflow=hidden;rotatable=0;points=[[0,0.5],[1,0.5]];portConstraint=eastwest;whiteSpace=wrap;html=1;" parent="-5tsXmkmVfbZth0xjSN1-49" vertex="1">
          <mxGeometry y="138" width="265" height="22" as="geometry" />
        </mxCell>
        <mxCell id="-5tsXmkmVfbZth0xjSN1-53" value="MainView" style="swimlane;fontStyle=1;align=center;verticalAlign=top;childLayout=stackLayout;horizontal=1;startSize=26;horizontalStack=0;resizeParent=1;resizeParentMax=0;resizeLast=0;collapsible=1;marginBottom=0;whiteSpace=wrap;html=1;" parent="1" vertex="1">
          <mxGeometry x="1474" y="860" width="180" height="110" as="geometry" />
        </mxCell>
        <mxCell id="-5tsXmkmVfbZth0xjSN1-54" value="+ clientsButton: JButton&lt;div&gt;+ productsButton: JButton&lt;/div&gt;&lt;div&gt;+ ordersButton: JButton&lt;/div&gt;" style="text;strokeColor=none;fillColor=none;align=left;verticalAlign=top;spacingLeft=4;spacingRight=4;overflow=hidden;rotatable=0;points=[[0,0.5],[1,0.5]];portConstraint=eastwest;whiteSpace=wrap;html=1;" parent="-5tsXmkmVfbZth0xjSN1-53" vertex="1">
          <mxGeometry y="26" width="180" height="54" as="geometry" />
        </mxCell>
        <mxCell id="-5tsXmkmVfbZth0xjSN1-55" value="" style="line;strokeWidth=1;fillColor=none;align=left;verticalAlign=middle;spacingTop=-1;spacingLeft=3;spacingRight=3;rotatable=0;labelPosition=right;points=[];portConstraint=eastwest;strokeColor=inherit;" parent="-5tsXmkmVfbZth0xjSN1-53" vertex="1">
          <mxGeometry y="80" width="180" height="8" as="geometry" />
        </mxCell>
        <mxCell id="-5tsXmkmVfbZth0xjSN1-56" value="+ MainView()" style="text;strokeColor=none;fillColor=none;align=left;verticalAlign=top;spacingLeft=4;spacingRight=4;overflow=hidden;rotatable=0;points=[[0,0.5],[1,0.5]];portConstraint=eastwest;whiteSpace=wrap;html=1;" parent="-5tsXmkmVfbZth0xjSN1-53" vertex="1">
          <mxGeometry y="88" width="180" height="22" as="geometry" />
        </mxCell>
        <mxCell id="-5tsXmkmVfbZth0xjSN1-57" value="MainController" style="swimlane;fontStyle=1;align=center;verticalAlign=top;childLayout=stackLayout;horizontal=1;startSize=26;horizontalStack=0;resizeParent=1;resizeParentMax=0;resizeLast=0;collapsible=1;marginBottom=0;whiteSpace=wrap;html=1;" parent="1" vertex="1">
          <mxGeometry x="910" y="720" width="265" height="80" as="geometry" />
        </mxCell>
        <mxCell id="-5tsXmkmVfbZth0xjSN1-58" value="+ view: MainView" style="text;strokeColor=none;fillColor=none;align=left;verticalAlign=top;spacingLeft=4;spacingRight=4;overflow=hidden;rotatable=0;points=[[0,0.5],[1,0.5]];portConstraint=eastwest;whiteSpace=wrap;html=1;" parent="-5tsXmkmVfbZth0xjSN1-57" vertex="1">
          <mxGeometry y="26" width="265" height="24" as="geometry" />
        </mxCell>
        <mxCell id="-5tsXmkmVfbZth0xjSN1-59" value="" style="line;strokeWidth=1;fillColor=none;align=left;verticalAlign=middle;spacingTop=-1;spacingLeft=3;spacingRight=3;rotatable=0;labelPosition=right;points=[];portConstraint=eastwest;strokeColor=inherit;" parent="-5tsXmkmVfbZth0xjSN1-57" vertex="1">
          <mxGeometry y="50" width="265" height="8" as="geometry" />
        </mxCell>
        <mxCell id="-5tsXmkmVfbZth0xjSN1-60" value="+ MainView()" style="text;strokeColor=none;fillColor=none;align=left;verticalAlign=top;spacingLeft=4;spacingRight=4;overflow=hidden;rotatable=0;points=[[0,0.5],[1,0.5]];portConstraint=eastwest;whiteSpace=wrap;html=1;" parent="-5tsXmkmVfbZth0xjSN1-57" vertex="1">
          <mxGeometry y="58" width="265" height="22" as="geometry" />
        </mxCell>
        <mxCell id="-5tsXmkmVfbZth0xjSN1-62" value="ClientDAO" style="swimlane;fontStyle=1;align=center;verticalAlign=top;childLayout=stackLayout;horizontal=1;startSize=26;horizontalStack=0;resizeParent=1;resizeParentMax=0;resizeLast=0;collapsible=1;marginBottom=0;whiteSpace=wrap;html=1;" parent="1" vertex="1">
          <mxGeometry x="1430" y="290" width="200" height="80" as="geometry" />
        </mxCell>
        <mxCell id="-5tsXmkmVfbZth0xjSN1-63" value="(inherits) AbstractDAO&amp;lt;Client&amp;gt;" style="text;strokeColor=none;fillColor=none;align=left;verticalAlign=top;spacingLeft=4;spacingRight=4;overflow=hidden;rotatable=0;points=[[0,0.5],[1,0.5]];portConstraint=eastwest;whiteSpace=wrap;html=1;" parent="-5tsXmkmVfbZth0xjSN1-62" vertex="1">
          <mxGeometry y="26" width="200" height="24" as="geometry" />
        </mxCell>
        <mxCell id="-5tsXmkmVfbZth0xjSN1-64" value="" style="line;strokeWidth=1;fillColor=none;align=left;verticalAlign=middle;spacingTop=-1;spacingLeft=3;spacingRight=3;rotatable=0;labelPosition=right;points=[];portConstraint=eastwest;strokeColor=inherit;" parent="-5tsXmkmVfbZth0xjSN1-62" vertex="1">
          <mxGeometry y="50" width="200" height="8" as="geometry" />
        </mxCell>
        <mxCell id="-5tsXmkmVfbZth0xjSN1-65" value="+ ClientDAO()" style="text;strokeColor=none;fillColor=none;align=left;verticalAlign=top;spacingLeft=4;spacingRight=4;overflow=hidden;rotatable=0;points=[[0,0.5],[1,0.5]];portConstraint=eastwest;whiteSpace=wrap;html=1;" parent="-5tsXmkmVfbZth0xjSN1-62" vertex="1">
          <mxGeometry y="58" width="200" height="22" as="geometry" />
        </mxCell>
        <mxCell id="-5tsXmkmVfbZth0xjSN1-66" value="ProductDAO" style="swimlane;fontStyle=1;align=center;verticalAlign=top;childLayout=stackLayout;horizontal=1;startSize=26;horizontalStack=0;resizeParent=1;resizeParentMax=0;resizeLast=0;collapsible=1;marginBottom=0;whiteSpace=wrap;html=1;" parent="1" vertex="1">
          <mxGeometry x="1430" y="440" width="190" height="80" as="geometry" />
        </mxCell>
        <mxCell id="-5tsXmkmVfbZth0xjSN1-67" value="(inherits) AbstractDAO&amp;lt;Product&amp;gt;" style="text;strokeColor=none;fillColor=none;align=left;verticalAlign=top;spacingLeft=4;spacingRight=4;overflow=hidden;rotatable=0;points=[[0,0.5],[1,0.5]];portConstraint=eastwest;whiteSpace=wrap;html=1;" parent="-5tsXmkmVfbZth0xjSN1-66" vertex="1">
          <mxGeometry y="26" width="190" height="24" as="geometry" />
        </mxCell>
        <mxCell id="-5tsXmkmVfbZth0xjSN1-68" value="" style="line;strokeWidth=1;fillColor=none;align=left;verticalAlign=middle;spacingTop=-1;spacingLeft=3;spacingRight=3;rotatable=0;labelPosition=right;points=[];portConstraint=eastwest;strokeColor=inherit;" parent="-5tsXmkmVfbZth0xjSN1-66" vertex="1">
          <mxGeometry y="50" width="190" height="8" as="geometry" />
        </mxCell>
        <mxCell id="-5tsXmkmVfbZth0xjSN1-69" value="+ ProductDAO()" style="text;strokeColor=none;fillColor=none;align=left;verticalAlign=top;spacingLeft=4;spacingRight=4;overflow=hidden;rotatable=0;points=[[0,0.5],[1,0.5]];portConstraint=eastwest;whiteSpace=wrap;html=1;" parent="-5tsXmkmVfbZth0xjSN1-66" vertex="1">
          <mxGeometry y="58" width="190" height="22" as="geometry" />
        </mxCell>
        <mxCell id="-5tsXmkmVfbZth0xjSN1-70" value="OrderDAO" style="swimlane;fontStyle=1;align=center;verticalAlign=top;childLayout=stackLayout;horizontal=1;startSize=26;horizontalStack=0;resizeParent=1;resizeParentMax=0;resizeLast=0;collapsible=1;marginBottom=0;whiteSpace=wrap;html=1;" parent="1" vertex="1">
          <mxGeometry x="1440" y="585" width="190" height="80" as="geometry" />
        </mxCell>
        <mxCell id="-5tsXmkmVfbZth0xjSN1-71" value="(inherits) AbstractDAO&amp;lt;Order&amp;gt;" style="text;strokeColor=none;fillColor=none;align=left;verticalAlign=top;spacingLeft=4;spacingRight=4;overflow=hidden;rotatable=0;points=[[0,0.5],[1,0.5]];portConstraint=eastwest;whiteSpace=wrap;html=1;" parent="-5tsXmkmVfbZth0xjSN1-70" vertex="1">
          <mxGeometry y="26" width="190" height="24" as="geometry" />
        </mxCell>
        <mxCell id="-5tsXmkmVfbZth0xjSN1-72" value="" style="line;strokeWidth=1;fillColor=none;align=left;verticalAlign=middle;spacingTop=-1;spacingLeft=3;spacingRight=3;rotatable=0;labelPosition=right;points=[];portConstraint=eastwest;strokeColor=inherit;" parent="-5tsXmkmVfbZth0xjSN1-70" vertex="1">
          <mxGeometry y="50" width="190" height="8" as="geometry" />
        </mxCell>
        <mxCell id="-5tsXmkmVfbZth0xjSN1-73" value="+ OrderDAO()" style="text;strokeColor=none;fillColor=none;align=left;verticalAlign=top;spacingLeft=4;spacingRight=4;overflow=hidden;rotatable=0;points=[[0,0.5],[1,0.5]];portConstraint=eastwest;whiteSpace=wrap;html=1;" parent="-5tsXmkmVfbZth0xjSN1-70" vertex="1">
          <mxGeometry y="58" width="190" height="22" as="geometry" />
        </mxCell>
        <mxCell id="-5tsXmkmVfbZth0xjSN1-74" value="Bill" style="swimlane;fontStyle=1;align=center;verticalAlign=top;childLayout=stackLayout;horizontal=1;startSize=26;horizontalStack=0;resizeParent=1;resizeParentMax=0;resizeLast=0;collapsible=1;marginBottom=0;whiteSpace=wrap;html=1;" parent="1" vertex="1">
          <mxGeometry x="50" y="585" width="200" height="230" as="geometry" />
        </mxCell>
        <mxCell id="-5tsXmkmVfbZth0xjSN1-75" value="- id: int&lt;div&gt;- orderId: int&lt;/div&gt;&lt;div&gt;- clientName: String&lt;/div&gt;&lt;div&gt;- productName: String&lt;/div&gt;&lt;div&gt;- quantity: int&lt;/div&gt;&lt;div&gt;- totalPrice: double&lt;/div&gt;" style="text;strokeColor=none;fillColor=none;align=left;verticalAlign=top;spacingLeft=4;spacingRight=4;overflow=hidden;rotatable=0;points=[[0,0.5],[1,0.5]];portConstraint=eastwest;whiteSpace=wrap;html=1;" parent="-5tsXmkmVfbZth0xjSN1-74" vertex="1">
          <mxGeometry y="26" width="200" height="94" as="geometry" />
        </mxCell>
        <mxCell id="-5tsXmkmVfbZth0xjSN1-76" value="" style="line;strokeWidth=1;fillColor=none;align=left;verticalAlign=middle;spacingTop=-1;spacingLeft=3;spacingRight=3;rotatable=0;labelPosition=right;points=[];portConstraint=eastwest;strokeColor=inherit;" parent="-5tsXmkmVfbZth0xjSN1-74" vertex="1">
          <mxGeometry y="120" width="200" height="8" as="geometry" />
        </mxCell>
        <mxCell id="-5tsXmkmVfbZth0xjSN1-77" value="+ id(): int&lt;div&gt;+ orderId(): int&lt;/div&gt;&lt;div&gt;+ clientName(): String&lt;/div&gt;&lt;div&gt;+ productName(): String&lt;/div&gt;&lt;div&gt;+ quantity(): int&lt;/div&gt;&lt;div&gt;+ totalPrice(): double&lt;/div&gt;" style="text;strokeColor=none;fillColor=none;align=left;verticalAlign=top;spacingLeft=4;spacingRight=4;overflow=hidden;rotatable=0;points=[[0,0.5],[1,0.5]];portConstraint=eastwest;whiteSpace=wrap;html=1;" parent="-5tsXmkmVfbZth0xjSN1-74" vertex="1">
          <mxGeometry y="128" width="200" height="102" as="geometry" />
        </mxCell>
        <mxCell id="IYXb5KOJH5QVgAMzH2U9-1" value="TableGenerator&amp;lt;T&amp;gt;" style="swimlane;fontStyle=1;align=center;verticalAlign=top;childLayout=stackLayout;horizontal=1;startSize=26;horizontalStack=0;resizeParent=1;resizeParentMax=0;resizeLast=0;collapsible=1;marginBottom=0;whiteSpace=wrap;html=1;" vertex="1" parent="1">
          <mxGeometry x="480" y="1169" width="250" height="74" as="geometry" />
        </mxCell>
        <mxCell id="IYXb5KOJH5QVgAMzH2U9-2" value="" style="line;strokeWidth=1;fillColor=none;align=left;verticalAlign=middle;spacingTop=-1;spacingLeft=3;spacingRight=3;rotatable=0;labelPosition=right;points=[];portConstraint=eastwest;strokeColor=inherit;" vertex="1" parent="IYXb5KOJH5QVgAMzH2U9-1">
          <mxGeometry y="26" width="250" height="8" as="geometry" />
        </mxCell>
        <mxCell id="IYXb5KOJH5QVgAMzH2U9-3" value="+ populateTable(list: List&amp;lt;T&amp;gt;, tableModel: DefaultTableModel): void" style="text;strokeColor=none;fillColor=none;align=left;verticalAlign=top;spacingLeft=4;spacingRight=4;overflow=hidden;rotatable=0;points=[[0,0.5],[1,0.5]];portConstraint=eastwest;whiteSpace=wrap;html=1;" vertex="1" parent="IYXb5KOJH5QVgAMzH2U9-1">
          <mxGeometry y="34" width="250" height="40" as="geometry" />
        </mxCell>
        <mxCell id="IYXb5KOJH5QVgAMzH2U9-4" value="BillView" style="swimlane;fontStyle=1;align=center;verticalAlign=top;childLayout=stackLayout;horizontal=1;startSize=26;horizontalStack=0;resizeParent=1;resizeParentMax=0;resizeLast=0;collapsible=1;marginBottom=0;whiteSpace=wrap;html=1;" vertex="1" parent="1">
          <mxGeometry x="1350" y="1400" width="206" height="118" as="geometry" />
        </mxCell>
        <mxCell id="IYXb5KOJH5QVgAMzH2U9-5" value="+ tableModel: DefaultTableModel&lt;div&gt;+ refreshButton: JButton&lt;/div&gt;" style="text;strokeColor=none;fillColor=none;align=left;verticalAlign=top;spacingLeft=4;spacingRight=4;overflow=hidden;rotatable=0;points=[[0,0.5],[1,0.5]];portConstraint=eastwest;whiteSpace=wrap;html=1;" vertex="1" parent="IYXb5KOJH5QVgAMzH2U9-4">
          <mxGeometry y="26" width="206" height="44" as="geometry" />
        </mxCell>
        <mxCell id="IYXb5KOJH5QVgAMzH2U9-6" value="" style="line;strokeWidth=1;fillColor=none;align=left;verticalAlign=middle;spacingTop=-1;spacingLeft=3;spacingRight=3;rotatable=0;labelPosition=right;points=[];portConstraint=eastwest;strokeColor=inherit;" vertex="1" parent="IYXb5KOJH5QVgAMzH2U9-4">
          <mxGeometry y="70" width="206" height="8" as="geometry" />
        </mxCell>
        <mxCell id="IYXb5KOJH5QVgAMzH2U9-7" value="+ BillView()" style="text;strokeColor=none;fillColor=none;align=left;verticalAlign=top;spacingLeft=4;spacingRight=4;overflow=hidden;rotatable=0;points=[[0,0.5],[1,0.5]];portConstraint=eastwest;whiteSpace=wrap;html=1;" vertex="1" parent="IYXb5KOJH5QVgAMzH2U9-4">
          <mxGeometry y="78" width="206" height="40" as="geometry" />
        </mxCell>
        <mxCell id="IYXb5KOJH5QVgAMzH2U9-8" value="BillController" style="swimlane;fontStyle=1;align=center;verticalAlign=top;childLayout=stackLayout;horizontal=1;startSize=26;horizontalStack=0;resizeParent=1;resizeParentMax=0;resizeLast=0;collapsible=1;marginBottom=0;whiteSpace=wrap;html=1;" vertex="1" parent="1">
          <mxGeometry x="1230" y="660" width="190" height="130" as="geometry" />
        </mxCell>
        <mxCell id="IYXb5KOJH5QVgAMzH2U9-9" value="- view: BillView&lt;div&gt;- billDAO: BillDAO&lt;/div&gt;" style="text;strokeColor=none;fillColor=none;align=left;verticalAlign=top;spacingLeft=4;spacingRight=4;overflow=hidden;rotatable=0;points=[[0,0.5],[1,0.5]];portConstraint=eastwest;whiteSpace=wrap;html=1;" vertex="1" parent="IYXb5KOJH5QVgAMzH2U9-8">
          <mxGeometry y="26" width="190" height="34" as="geometry" />
        </mxCell>
        <mxCell id="IYXb5KOJH5QVgAMzH2U9-10" value="" style="line;strokeWidth=1;fillColor=none;align=left;verticalAlign=middle;spacingTop=-1;spacingLeft=3;spacingRight=3;rotatable=0;labelPosition=right;points=[];portConstraint=eastwest;strokeColor=inherit;" vertex="1" parent="IYXb5KOJH5QVgAMzH2U9-8">
          <mxGeometry y="60" width="190" height="8" as="geometry" />
        </mxCell>
        <mxCell id="IYXb5KOJH5QVgAMzH2U9-11" value="+ BillController(view: BillView)&lt;div&gt;- initListeners(): void&lt;/div&gt;&lt;div&gt;- loadBills(): void&lt;/div&gt;" style="text;strokeColor=none;fillColor=none;align=left;verticalAlign=top;spacingLeft=4;spacingRight=4;overflow=hidden;rotatable=0;points=[[0,0.5],[1,0.5]];portConstraint=eastwest;whiteSpace=wrap;html=1;" vertex="1" parent="IYXb5KOJH5QVgAMzH2U9-8">
          <mxGeometry y="68" width="190" height="62" as="geometry" />
        </mxCell>
        <mxCell id="IYXb5KOJH5QVgAMzH2U9-26" value="Extends" style="endArrow=block;endSize=16;endFill=0;html=1;rounded=0;exitX=0;exitY=0.5;exitDx=0;exitDy=0;entryX=1;entryY=0.5;entryDx=0;entryDy=0;" edge="1" parent="1" source="-5tsXmkmVfbZth0xjSN1-13" target="-5tsXmkmVfbZth0xjSN1-11">
          <mxGeometry width="160" relative="1" as="geometry">
            <mxPoint x="870" y="660" as="sourcePoint" />
            <mxPoint x="1030" y="660" as="targetPoint" />
          </mxGeometry>
        </mxCell>
        <mxCell id="IYXb5KOJH5QVgAMzH2U9-27" value="Extends" style="endArrow=block;endSize=16;endFill=0;html=1;rounded=0;entryX=0.924;entryY=1.045;entryDx=0;entryDy=0;entryPerimeter=0;exitX=0.25;exitY=0;exitDx=0;exitDy=0;" edge="1" parent="1" source="-5tsXmkmVfbZth0xjSN1-62" target="-5tsXmkmVfbZth0xjSN1-11">
          <mxGeometry width="160" relative="1" as="geometry">
            <mxPoint x="870" y="660" as="sourcePoint" />
            <mxPoint x="1030" y="660" as="targetPoint" />
          </mxGeometry>
        </mxCell>
        <mxCell id="IYXb5KOJH5QVgAMzH2U9-28" value="Extends" style="endArrow=block;endSize=16;endFill=0;html=1;rounded=0;entryX=0.899;entryY=0.978;entryDx=0;entryDy=0;entryPerimeter=0;exitX=0.096;exitY=0.016;exitDx=0;exitDy=0;exitPerimeter=0;" edge="1" parent="1" source="-5tsXmkmVfbZth0xjSN1-66" target="-5tsXmkmVfbZth0xjSN1-11">
          <mxGeometry width="160" relative="1" as="geometry">
            <mxPoint x="870" y="660" as="sourcePoint" />
            <mxPoint x="1030" y="660" as="targetPoint" />
          </mxGeometry>
        </mxCell>
        <mxCell id="IYXb5KOJH5QVgAMzH2U9-29" value="Extends" style="endArrow=block;endSize=16;endFill=0;html=1;rounded=0;entryX=0.799;entryY=1.045;entryDx=0;entryDy=0;entryPerimeter=0;exitX=0.103;exitY=0.031;exitDx=0;exitDy=0;exitPerimeter=0;" edge="1" parent="1" source="-5tsXmkmVfbZth0xjSN1-70" target="-5tsXmkmVfbZth0xjSN1-11">
          <mxGeometry width="160" relative="1" as="geometry">
            <mxPoint x="870" y="660" as="sourcePoint" />
            <mxPoint x="1030" y="660" as="targetPoint" />
          </mxGeometry>
        </mxCell>
        <mxCell id="IYXb5KOJH5QVgAMzH2U9-30" value="" style="endArrow=block;startArrow=block;endFill=1;startFill=1;html=1;rounded=0;exitX=1;exitY=0.5;exitDx=0;exitDy=0;entryX=0;entryY=0;entryDx=0;entryDy=0;" edge="1" parent="1" source="-5tsXmkmVfbZth0xjSN1-3" target="-5tsXmkmVfbZth0xjSN1-66">
          <mxGeometry width="160" relative="1" as="geometry">
            <mxPoint x="870" y="660" as="sourcePoint" />
            <mxPoint x="1030" y="660" as="targetPoint" />
          </mxGeometry>
        </mxCell>
        <mxCell id="IYXb5KOJH5QVgAMzH2U9-31" value="" style="endArrow=block;startArrow=block;endFill=1;startFill=1;html=1;rounded=0;exitX=1;exitY=0.75;exitDx=0;exitDy=0;entryX=0;entryY=0.5;entryDx=0;entryDy=0;" edge="1" parent="1" source="-5tsXmkmVfbZth0xjSN1-2" target="-5tsXmkmVfbZth0xjSN1-71">
          <mxGeometry width="160" relative="1" as="geometry">
            <mxPoint x="850" y="660" as="sourcePoint" />
            <mxPoint x="1010" y="660" as="targetPoint" />
          </mxGeometry>
        </mxCell>
        <mxCell id="IYXb5KOJH5QVgAMzH2U9-32" value="" style="endArrow=block;startArrow=block;endFill=1;startFill=1;html=1;rounded=0;exitX=1;exitY=0.75;exitDx=0;exitDy=0;entryX=0;entryY=0.25;entryDx=0;entryDy=0;" edge="1" parent="1" source="-5tsXmkmVfbZth0xjSN1-1" target="-5tsXmkmVfbZth0xjSN1-62">
          <mxGeometry width="160" relative="1" as="geometry">
            <mxPoint x="790" y="670" as="sourcePoint" />
            <mxPoint x="950" y="670" as="targetPoint" />
          </mxGeometry>
        </mxCell>
        <mxCell id="IYXb5KOJH5QVgAMzH2U9-33" value="" style="endArrow=block;startArrow=block;endFill=1;startFill=1;html=1;rounded=0;exitX=0.899;exitY=-0.008;exitDx=0;exitDy=0;exitPerimeter=0;entryX=1;entryY=1;entryDx=0;entryDy=0;" edge="1" parent="1" source="-5tsXmkmVfbZth0xjSN1-29" target="-5tsXmkmVfbZth0xjSN1-1">
          <mxGeometry width="160" relative="1" as="geometry">
            <mxPoint x="750" y="660" as="sourcePoint" />
            <mxPoint x="910" y="660" as="targetPoint" />
          </mxGeometry>
        </mxCell>
        <mxCell id="IYXb5KOJH5QVgAMzH2U9-34" value="" style="endArrow=block;startArrow=block;endFill=1;startFill=1;html=1;rounded=0;exitX=0.404;exitY=0.006;exitDx=0;exitDy=0;exitPerimeter=0;entryX=0.914;entryY=1.017;entryDx=0;entryDy=0;entryPerimeter=0;" edge="1" parent="1" source="-5tsXmkmVfbZth0xjSN1-33" target="-5tsXmkmVfbZth0xjSN1-2">
          <mxGeometry width="160" relative="1" as="geometry">
            <mxPoint x="750" y="660" as="sourcePoint" />
            <mxPoint x="910" y="660" as="targetPoint" />
          </mxGeometry>
        </mxCell>
        <mxCell id="IYXb5KOJH5QVgAMzH2U9-37" value="" style="endArrow=block;startArrow=block;endFill=1;startFill=1;html=1;rounded=0;exitX=0.5;exitY=0;exitDx=0;exitDy=0;entryX=0.75;entryY=1;entryDx=0;entryDy=0;" edge="1" parent="1" source="-5tsXmkmVfbZth0xjSN1-37" target="-5tsXmkmVfbZth0xjSN1-3">
          <mxGeometry width="160" relative="1" as="geometry">
            <mxPoint x="750" y="660" as="sourcePoint" />
            <mxPoint x="910" y="660" as="targetPoint" />
          </mxGeometry>
        </mxCell>
        <mxCell id="IYXb5KOJH5QVgAMzH2U9-39" value="" style="endArrow=block;startArrow=block;endFill=1;startFill=1;html=1;rounded=0;exitX=0.25;exitY=0;exitDx=0;exitDy=0;entryX=0;entryY=0.5;entryDx=0;entryDy=0;" edge="1" parent="1" source="IYXb5KOJH5QVgAMzH2U9-8" target="-5tsXmkmVfbZth0xjSN1-15">
          <mxGeometry width="160" relative="1" as="geometry">
            <mxPoint x="750" y="660" as="sourcePoint" />
            <mxPoint x="910" y="660" as="targetPoint" />
          </mxGeometry>
        </mxCell>
        <mxCell id="IYXb5KOJH5QVgAMzH2U9-40" value="" style="endArrow=block;startArrow=block;endFill=1;startFill=1;html=1;rounded=0;exitX=0.918;exitY=1.041;exitDx=0;exitDy=0;exitPerimeter=0;entryX=0.75;entryY=0;entryDx=0;entryDy=0;" edge="1" parent="1" source="-5tsXmkmVfbZth0xjSN1-32" target="-5tsXmkmVfbZth0xjSN1-41">
          <mxGeometry width="160" relative="1" as="geometry">
            <mxPoint x="750" y="950" as="sourcePoint" />
            <mxPoint x="910" y="950" as="targetPoint" />
          </mxGeometry>
        </mxCell>
        <mxCell id="IYXb5KOJH5QVgAMzH2U9-41" value="" style="endArrow=block;startArrow=block;endFill=1;startFill=1;html=1;rounded=0;exitX=1.022;exitY=-0.022;exitDx=0;exitDy=0;exitPerimeter=0;" edge="1" parent="1" source="-5tsXmkmVfbZth0xjSN1-36" target="-5tsXmkmVfbZth0xjSN1-50">
          <mxGeometry width="160" relative="1" as="geometry">
            <mxPoint x="750" y="950" as="sourcePoint" />
            <mxPoint x="910" y="950" as="targetPoint" />
          </mxGeometry>
        </mxCell>
        <mxCell id="IYXb5KOJH5QVgAMzH2U9-43" value="" style="endArrow=block;startArrow=block;endFill=1;startFill=1;html=1;rounded=0;exitX=0.225;exitY=1.072;exitDx=0;exitDy=0;exitPerimeter=0;entryX=0.998;entryY=0.724;entryDx=0;entryDy=0;entryPerimeter=0;" edge="1" parent="1" source="-5tsXmkmVfbZth0xjSN1-40" target="-5tsXmkmVfbZth0xjSN1-46">
          <mxGeometry width="160" relative="1" as="geometry">
            <mxPoint x="750" y="950" as="sourcePoint" />
            <mxPoint x="910" y="950" as="targetPoint" />
          </mxGeometry>
        </mxCell>
        <mxCell id="IYXb5KOJH5QVgAMzH2U9-44" value="" style="endArrow=block;startArrow=block;endFill=1;startFill=1;html=1;rounded=0;exitX=1;exitY=0.5;exitDx=0;exitDy=0;entryX=0;entryY=0.5;entryDx=0;entryDy=0;" edge="1" parent="1" source="-5tsXmkmVfbZth0xjSN1-58" target="-5tsXmkmVfbZth0xjSN1-54">
          <mxGeometry width="160" relative="1" as="geometry">
            <mxPoint x="750" y="950" as="sourcePoint" />
            <mxPoint x="910" y="950" as="targetPoint" />
          </mxGeometry>
        </mxCell>
        <mxCell id="IYXb5KOJH5QVgAMzH2U9-45" value="" style="endArrow=block;startArrow=block;endFill=1;startFill=1;html=1;rounded=0;exitX=0.849;exitY=1.02;exitDx=0;exitDy=0;exitPerimeter=0;entryX=0.75;entryY=0;entryDx=0;entryDy=0;" edge="1" parent="1" source="IYXb5KOJH5QVgAMzH2U9-11" target="IYXb5KOJH5QVgAMzH2U9-4">
          <mxGeometry width="160" relative="1" as="geometry">
            <mxPoint x="750" y="880" as="sourcePoint" />
            <mxPoint x="1470" y="1080" as="targetPoint" />
          </mxGeometry>
        </mxCell>
        <mxCell id="IYXb5KOJH5QVgAMzH2U9-46" value="Use" style="endArrow=open;endSize=12;dashed=1;html=1;rounded=0;exitX=0;exitY=0.5;exitDx=0;exitDy=0;" edge="1" parent="1" source="-5tsXmkmVfbZth0xjSN1-60">
          <mxGeometry width="160" relative="1" as="geometry">
            <mxPoint x="750" y="880" as="sourcePoint" />
            <mxPoint x="910" y="880" as="targetPoint" />
          </mxGeometry>
        </mxCell>
        <mxCell id="IYXb5KOJH5QVgAMzH2U9-47" value="Use" style="endArrow=open;endSize=12;dashed=1;html=1;rounded=0;exitX=0;exitY=0.25;exitDx=0;exitDy=0;entryX=1;entryY=0;entryDx=0;entryDy=0;" edge="1" parent="1" source="-5tsXmkmVfbZth0xjSN1-57" target="-5tsXmkmVfbZth0xjSN1-29">
          <mxGeometry width="160" relative="1" as="geometry">
            <mxPoint x="750" y="880" as="sourcePoint" />
            <mxPoint x="910" y="880" as="targetPoint" />
          </mxGeometry>
        </mxCell>
        <mxCell id="IYXb5KOJH5QVgAMzH2U9-48" value="Use" style="endArrow=open;endSize=12;dashed=1;html=1;rounded=0;exitX=0;exitY=0.5;exitDx=0;exitDy=0;entryX=0.885;entryY=0;entryDx=0;entryDy=0;entryPerimeter=0;" edge="1" parent="1" source="-5tsXmkmVfbZth0xjSN1-58" target="-5tsXmkmVfbZth0xjSN1-33">
          <mxGeometry width="160" relative="1" as="geometry">
            <mxPoint x="750" y="880" as="sourcePoint" />
            <mxPoint x="910" y="880" as="targetPoint" />
          </mxGeometry>
        </mxCell>
        <mxCell id="IYXb5KOJH5QVgAMzH2U9-49" value="Use" style="endArrow=open;endSize=12;dashed=1;html=1;rounded=0;exitX=0.842;exitY=-0.016;exitDx=0;exitDy=0;exitPerimeter=0;entryX=0;entryY=0.5;entryDx=0;entryDy=0;" edge="1" parent="1" source="-5tsXmkmVfbZth0xjSN1-57" target="IYXb5KOJH5QVgAMzH2U9-9">
          <mxGeometry width="160" relative="1" as="geometry">
            <mxPoint x="750" y="880" as="sourcePoint" />
            <mxPoint x="910" y="880" as="targetPoint" />
          </mxGeometry>
        </mxCell>
        <mxCell id="IYXb5KOJH5QVgAMzH2U9-51" value="Use" style="endArrow=open;endSize=12;dashed=1;html=1;rounded=0;exitX=1;exitY=0.5;exitDx=0;exitDy=0;entryX=0;entryY=0;entryDx=0;entryDy=0;" edge="1" parent="1" source="-5tsXmkmVfbZth0xjSN1-32" target="IYXb5KOJH5QVgAMzH2U9-1">
          <mxGeometry width="160" relative="1" as="geometry">
            <mxPoint x="700" y="1440" as="sourcePoint" />
            <mxPoint x="860" y="1440" as="targetPoint" />
          </mxGeometry>
        </mxCell>
        <mxCell id="IYXb5KOJH5QVgAMzH2U9-52" value="Use" style="endArrow=open;endSize=12;dashed=1;html=1;rounded=0;" edge="1" parent="1">
          <mxGeometry width="160" relative="1" as="geometry">
            <mxPoint x="700" y="1440" as="sourcePoint" />
            <mxPoint x="860" y="1440" as="targetPoint" />
          </mxGeometry>
        </mxCell>
        <mxCell id="IYXb5KOJH5QVgAMzH2U9-53" value="Use" style="endArrow=open;endSize=12;dashed=1;html=1;rounded=0;exitX=0.423;exitY=0.931;exitDx=0;exitDy=0;exitPerimeter=0;entryX=0.398;entryY=-0.003;entryDx=0;entryDy=0;entryPerimeter=0;" edge="1" parent="1" source="-5tsXmkmVfbZth0xjSN1-36" target="IYXb5KOJH5QVgAMzH2U9-1">
          <mxGeometry width="160" relative="1" as="geometry">
            <mxPoint x="700" y="1440" as="sourcePoint" />
            <mxPoint x="860" y="1440" as="targetPoint" />
          </mxGeometry>
        </mxCell>
        <mxCell id="IYXb5KOJH5QVgAMzH2U9-54" value="Use" style="endArrow=open;endSize=12;dashed=1;html=1;rounded=0;exitX=0.059;exitY=1.056;exitDx=0;exitDy=0;exitPerimeter=0;entryX=0.843;entryY=-0.02;entryDx=0;entryDy=0;entryPerimeter=0;" edge="1" parent="1" source="-5tsXmkmVfbZth0xjSN1-40" target="IYXb5KOJH5QVgAMzH2U9-1">
          <mxGeometry width="160" relative="1" as="geometry">
            <mxPoint x="700" y="1440" as="sourcePoint" />
            <mxPoint x="860" y="1440" as="targetPoint" />
          </mxGeometry>
        </mxCell>
        <mxCell id="IYXb5KOJH5QVgAMzH2U9-55" value="Use" style="endArrow=open;endSize=12;dashed=1;html=1;rounded=0;exitX=0.583;exitY=1.101;exitDx=0;exitDy=0;exitPerimeter=0;entryX=1;entryY=0.5;entryDx=0;entryDy=0;" edge="1" parent="1" source="IYXb5KOJH5QVgAMzH2U9-11" target="IYXb5KOJH5QVgAMzH2U9-3">
          <mxGeometry width="160" relative="1" as="geometry">
            <mxPoint x="700" y="1310" as="sourcePoint" />
            <mxPoint x="860" y="1310" as="targetPoint" />
          </mxGeometry>
        </mxCell>
      </root>
    </mxGraphModel>
  </diagram>
</mxfile>
